<?xml version="1.0" encoding="UTF-8" standalone="no"?>
<!-- Created with Inkscape (http://www.inkscape.org/) -->

<svg
   xmlns:dc="http://purl.org/dc/elements/1.1/"
   xmlns:cc="http://creativecommons.org/ns#"
   xmlns:rdf="http://www.w3.org/1999/02/22-rdf-syntax-ns#"
   xmlns:svg="http://www.w3.org/2000/svg"
   xmlns="http://www.w3.org/2000/svg"
   xmlns:sodipodi="http://sodipodi.sourceforge.net/DTD/sodipodi-0.dtd"
   xmlns:inkscape="http://www.inkscape.org/namespaces/inkscape"
   width="233.66902mm"
   height="73.91375mm"
   viewBox="0 0 827.9611 261.89912"
   id="svg2"
   version="1.1"
   inkscape:version="0.91 r13725"
   sodipodi:docname="aistats.svg">
  <sodipodi:namedview
     id="base"
     pagecolor="#ffffff"
     bordercolor="#666666"
     borderopacity="1.0"
     inkscape:pageopacity="0.0"
     inkscape:pageshadow="2"
     inkscape:zoom="0.61899245"
     inkscape:cx="313.43862"
     inkscape:cy="238.27786"
     inkscape:document-units="px"
     inkscape:current-layer="layer1"
     showgrid="true"
     inkscape:window-width="1186"
     inkscape:window-height="756"
     inkscape:window-x="56"
     inkscape:window-y="0"
     inkscape:window-maximized="0"
     fit-margin-top="0"
     fit-margin-left="0"
     fit-margin-right="0"
     fit-margin-bottom="0"
     units="mm">
    <inkscape:grid
       originy="-393.98775"
       originx="262.45832"
       id="grid4136"
       type="xygrid" />
  </sodipodi:namedview>
  <defs
     id="defs4">
    <marker
       inkscape:stockid="Arrow1Lend"
       orient="auto"
       refY="0"
       refX="0"
       id="Arrow1Lend"
       style="overflow:visible"
       inkscape:isstock="true">
      <path
         id="path4206"
         d="M 0,0 5,-5 -12.5,0 5,5 0,0 Z"
         style="fill:#000000;fill-opacity:1;fill-rule:evenodd;stroke:#000000;stroke-width:1pt;stroke-opacity:1"
         transform="matrix(-0.8,0,0,-0.8,-10,0)"
         inkscape:connector-curvature="0" />
    </marker>
    <marker
       inkscape:stockid="Arrow1Lstart"
       orient="auto"
       refY="0"
       refX="0"
       id="marker4487"
       style="overflow:visible"
       inkscape:isstock="true">
      <path
         id="path4489"
         d="M 0,0 5,-5 -12.5,0 5,5 0,0 Z"
         style="fill:#000000;fill-opacity:1;fill-rule:evenodd;stroke:#000000;stroke-width:1pt;stroke-opacity:1"
         transform="matrix(0.8,0,0,0.8,10,0)"
         inkscape:connector-curvature="0" />
    </marker>
    <marker
       inkscape:stockid="Arrow1Lstart"
       orient="auto"
       refY="0"
       refX="0"
       id="Arrow1Lstart"
       style="overflow:visible"
       inkscape:isstock="true">
      <path
         id="path4203"
         d="M 0,0 5,-5 -12.5,0 5,5 0,0 Z"
         style="fill-rule:evenodd;stroke:#000000;stroke-width:1pt"
         transform="matrix(0.8,0,0,0.8,10,0)"
         inkscape:connector-curvature="0" />
    </marker>
    <inkscape:perspective
       id="perspective6033"
       inkscape:persp3d-origin="372.0472 : 350.78743 : 1"
       inkscape:vp_z="744.09441 : 526.18112 : 1"
       inkscape:vp_y="0 : 999.99996 : 0"
       inkscape:vp_x="0 : 526.18112 : 1"
       sodipodi:type="inkscape:persp3d" />
  </defs>
  <metadata
     id="metadata7">
    <rdf:RDF>
      <cc:Work
         rdf:about="">
        <dc:format>image/svg+xml</dc:format>
        <dc:type
           rdf:resource="http://purl.org/dc/dcmitype/StillImage" />
        <dc:title></dc:title>
      </cc:Work>
    </rdf:RDF>
  </metadata>
  <g
     transform="translate(262.45836,-396.47537)"
     id="layer1"
     inkscape:groupmode="layer"
     inkscape:label="Layer 1">
    <path
       inkscape:export-ydpi="90"
       inkscape:export-xdpi="90"
       inkscape:connector-curvature="0"
       id="path6776"
       d="m -241.80777,538.99463 c 0,101.34679 0,101.34679 0,101.34679 l 109.45367,0 0,-101.34679 z"
       style="fill:none;fill-rule:evenodd;stroke:#000000;stroke-width:1.25000012;stroke-linecap:butt;stroke-linejoin:miter;stroke-miterlimit:7;stroke-dasharray:none;stroke-opacity:1" />
    <path
       inkscape:export-ydpi="90"
       inkscape:export-xdpi="90"
       sodipodi:nodetypes="cccc"
       inkscape:connector-curvature="0"
       id="path6778"
       d="m -241.92544,539.2767 72.86737,-44.31457 104.969582,0 -71.321142,44.11906"
       style="fill:none;fill-rule:evenodd;stroke:#000000;stroke-width:1.25000012;stroke-linecap:butt;stroke-linejoin:miter;stroke-miterlimit:7;stroke-dasharray:none;stroke-opacity:1" />
    <path
       inkscape:export-ydpi="90"
       inkscape:export-xdpi="90"
       sodipodi:nodetypes="ccc"
       inkscape:connector-curvature="0"
       id="path6780"
       d="m -64.16559,494.88938 0.628442,89.33622 -69.031682,54.63753"
       style="fill:none;fill-rule:evenodd;stroke:#000000;stroke-width:1.25000012;stroke-linecap:butt;stroke-linejoin:miter;stroke-miterlimit:7;stroke-dasharray:none;stroke-opacity:1" />
    <flowRoot
       style="font-style:normal;font-variant:normal;font-weight:normal;font-stretch:normal;font-size:37.5px;line-height:125%;font-family:sans-serif;-inkscape-font-specification:'sans-serif, Normal';text-align:start;letter-spacing:0px;word-spacing:0px;writing-mode:lr-tb;text-anchor:start;fill:#000000;fill-opacity:1;stroke:none;stroke-width:1px;stroke-linecap:butt;stroke-linejoin:miter;stroke-opacity:1"
       id="flowRoot6786"
       xml:space="preserve"><flowRegion
         id="flowRegion6788"><rect
           y="292.36218"
           x="-80"
           height="120"
           width="40"
           id="rect6790" /></flowRegion><flowPara
         id="flowPara6792">indivisample</flowPara></flowRoot>    <flowRoot
       transform="translate(-124.98916,499.88869)"
       style="font-style:normal;font-variant:normal;font-weight:normal;font-stretch:normal;font-size:28.18624878px;line-height:125%;font-family:sans-serif;-inkscape-font-specification:'sans-serif, Normal';text-align:start;letter-spacing:0px;word-spacing:0px;writing-mode:lr-tb;text-anchor:start;fill:#000000;fill-opacity:1;stroke:none;stroke-width:1px;stroke-linecap:butt;stroke-linejoin:miter;stroke-opacity:1"
       id="flowRoot7097"
       xml:space="preserve"><flowRegion
         id="flowRegion7099"><rect
           y="12.473514"
           x="244.98917"
           height="140"
           width="140"
           id="rect7101" /></flowRegion><flowPara
         id="flowPara7103" /></flowRoot>    <path
       sodipodi:nodetypes="cccc"
       inkscape:connector-curvature="0"
       id="path4222"
       d="m 302.17728,587.58593 90.35758,0 0,69.57471 -90.35758,0"
       style="fill:none;fill-rule:evenodd;stroke:#000000;stroke-width:2.42769241;stroke-linecap:butt;stroke-linejoin:miter;stroke-miterlimit:4;stroke-dasharray:none;stroke-opacity:1" />
    <path
       inkscape:connector-curvature="0"
       id="path4224"
       d="m 302.17728,657.16064 0,-69.57471 30.1192,-34.78735 90.35758,0 -30.1192,34.78735"
       style="fill:none;fill-rule:evenodd;stroke:#000000;stroke-width:2.42769241;stroke-linecap:butt;stroke-linejoin:miter;stroke-miterlimit:4;stroke-dasharray:none;stroke-opacity:1" />
    <path
       inkscape:connector-curvature="0"
       id="path4226"
       d="m 422.65406,552.79858 0,69.57471 -30.1192,34.78735"
       style="fill:none;fill-rule:evenodd;stroke:#000000;stroke-width:2.42769241;stroke-linecap:butt;stroke-linejoin:miter;stroke-miterlimit:4;stroke-dasharray:none;stroke-opacity:1" />
    <path
       inkscape:connector-curvature="0"
       id="path4230"
       d="m 336.82708,537.38138 86.54418,-0.27451 1.02725,-94.70006 -87.68654,0.27451 z"
       style="fill:#ff0000;fill-rule:evenodd;stroke:#000000;stroke-width:1px;stroke-linecap:butt;stroke-linejoin:miter;stroke-opacity:1"
       sodipodi:nodetypes="ccccc" />
    <path
       inkscape:connector-curvature="0"
       id="path4232"
       d="m 186.47631,585.59802 90.31549,0 -1.14235,70.65517 -90.31548,1.14235 z"
       style="fill:#445695;fill-opacity:1;fill-rule:evenodd;stroke:#000000;stroke-width:1.20602071px;stroke-linecap:butt;stroke-linejoin:miter;stroke-opacity:1"
       sodipodi:nodetypes="ccccc" />
    <path
       inkscape:connector-curvature="0"
       id="path4234"
       d="m 476.0025,547.52536 -31.98584,44.37163 90.66341,0 29.70113,-44.37163 z"
       style="fill:#ffff00;fill-rule:evenodd;stroke:#000000;stroke-width:1.19778728px;stroke-linecap:butt;stroke-linejoin:miter;stroke-opacity:1"
       sodipodi:nodetypes="ccccc" />
    <g
       id="g4379"
       transform="translate(-133.55878,343.00322)">
      <g
         word-spacing="normal"
         letter-spacing="normal"
         font-size-adjust="none"
         font-stretch="normal"
         font-weight="normal"
         font-variant="normal"
         font-style="normal"
         stroke-miterlimit="10.433"
         xml:space="preserve"
         transform="matrix(1.0629921,0,0,-1.0629921,-186.02362,789.27165)"
         id="g4381"
         style="font-style:normal;font-variant:normal;font-weight:normal;font-stretch:normal;letter-spacing:normal;word-spacing:normal;text-anchor:start;fill:none;fill-opacity:1;fill-rule:evenodd;stroke:#000000;stroke-linecap:butt;stroke-linejoin:miter;stroke-miterlimit:10.43299961;stroke-dasharray:none;stroke-dashoffset:0;stroke-opacity:1" />    </g>
    <g
       transform="translate(-19.730274,97.133654)"
       id="g4471" />
    <path
       style="opacity:1;fill:#d4a593;fill-opacity:1;fill-rule:nonzero;stroke:#000000;stroke-width:0.71396953;stroke-miterlimit:7;stroke-dasharray:none;stroke-dashoffset:0;stroke-opacity:1"
       d="m -240.38311,589.3674 0,-49.69228 53.6905,0 53.69051,0 0,49.69228 0,49.69228 -53.69051,0 -53.6905,0 0,-49.69228 z"
       id="path4187"
       inkscape:connector-curvature="0" />
    <path
       style="opacity:1;fill:#d4a593;fill-opacity:1;fill-rule:nonzero;stroke:#000000;stroke-width:0.71396953;stroke-miterlimit:7;stroke-dasharray:none;stroke-dashoffset:0;stroke-opacity:1"
       d="m -236.86086,537.7656 c 0.26178,-0.24142 15.79013,-9.75688 34.50744,-21.14547 l 34.03146,-20.70652 49.75786,0.29756 49.75786,0.29756 -33.7102,20.84791 -33.71021,20.84791 -50.55509,0 c -27.80531,0 -50.34091,-0.19753 -50.07912,-0.43895 z"
       id="path4189"
       inkscape:connector-curvature="0" />
    <path
       style="opacity:1;fill:#d4a593;fill-opacity:1;fill-rule:nonzero;stroke:#000000;stroke-width:0.71396953;stroke-miterlimit:7;stroke-dasharray:none;stroke-dashoffset:0;stroke-opacity:1"
       d="m -130.7174,586.52239 0,-48.89553 32.042037,-19.8365 c 17.623116,-10.91007 32.230443,-19.6476 32.460727,-19.41671 0.230283,0.23088 0.782315,19.43993 1.226736,42.68678 l 0.80804,42.26699 -31.759324,25.13173 c -17.467626,13.82245 -32.438576,25.54281 -33.268766,26.04525 -1.24174,0.75151 -1.50945,-7.75816 -1.50945,-47.98201 z"
       id="path4191"
       inkscape:connector-curvature="0" />
    <path
       style="fill:none;fill-rule:evenodd;stroke:#000000;stroke-width:2.00000024;stroke-linecap:butt;stroke-linejoin:miter;stroke-miterlimit:4;stroke-dasharray:12.00000107, 12.00000107;stroke-dashoffset:0;stroke-opacity:1;marker-start:url(#marker4487);marker-end:url(#Arrow1Lend)"
       d="M -47.297342,571.57361 C 7.6894011,532.36222 103.84469,532.36222 163.15699,569.00319"
       id="path4197"
       inkscape:connector-curvature="0"
       sodipodi:nodetypes="cc" />
    <text
       xml:space="preserve"
       style="font-style:normal;font-variant:normal;font-weight:normal;font-stretch:normal;font-size:25.00000191px;line-height:125%;font-family:Helvetica;-inkscape-font-specification:'Helvetica, Normal';text-align:start;letter-spacing:0px;word-spacing:0px;writing-mode:lr-tb;text-anchor:start;fill:#000000;fill-opacity:1;stroke:none;stroke-width:1px;stroke-linecap:butt;stroke-linejoin:miter;stroke-opacity:1"
       x="-13.31249"
       y="526.28833"
       id="text6029"
       sodipodi:linespacing="125%"><tspan
         sodipodi:role="line"
         id="tspan6031"
         x="-13.31249"
         y="526.28833">link function</tspan></text>
    <text
       xml:space="preserve"
       style="font-style:normal;font-variant:normal;font-weight:normal;font-stretch:normal;font-size:18.75000191px;line-height:125%;font-family:Helvetica;-inkscape-font-specification:'Helvetica, Normal';text-align:start;letter-spacing:0px;word-spacing:0px;writing-mode:lr-tb;text-anchor:start;fill:#000000;fill-opacity:1;stroke:none;stroke-width:1px;stroke-linecap:butt;stroke-linejoin:miter;stroke-opacity:1"
       x="339.77454"
       y="409.97025"
       id="text6033"
       sodipodi:linespacing="125%"><tspan
         sodipodi:role="line"
         id="tspan6035"
         x="339.77454"
         y="409.97025">mode-1 </tspan><tspan
         sodipodi:role="line"
         x="339.77454"
         y="433.40775"
         id="tspan6037">covariates</tspan></text>
    <text
       xml:space="preserve"
       style="font-style:normal;font-variant:normal;font-weight:normal;font-stretch:normal;font-size:18.75000191px;line-height:125%;font-family:Helvetica;-inkscape-font-specification:'Helvetica, Normal';text-align:start;letter-spacing:0px;word-spacing:0px;writing-mode:lr-tb;text-anchor:start;fill:#000000;fill-opacity:1;stroke:none;stroke-width:1px;stroke-linecap:butt;stroke-linejoin:miter;stroke-opacity:1"
       x="194.70248"
       y="547.80371"
       id="text6039"
       sodipodi:linespacing="125%"><tspan
         sodipodi:role="line"
         id="tspan6041"
         x="194.70248"
         y="547.80371">mode-2</tspan><tspan
         sodipodi:role="line"
         x="194.70248"
         y="571.24121"
         id="tspan6043">covariates</tspan></text>
    <text
       xml:space="preserve"
       style="font-style:normal;font-variant:normal;font-weight:normal;font-stretch:normal;font-size:18.75000191px;line-height:125%;font-family:Helvetica;-inkscape-font-specification:'Helvetica, Normal';text-align:start;letter-spacing:0px;word-spacing:0px;writing-mode:lr-tb;text-anchor:start;fill:#000000;fill-opacity:1;stroke:none;stroke-width:1px;stroke-linecap:butt;stroke-linejoin:miter;stroke-opacity:1"
       x="454.15149"
       y="616.20697"
       id="text6045"
       sodipodi:linespacing="125%"><tspan
         sodipodi:role="line"
         id="tspan6047"
         x="454.15149"
         y="616.20697">mode-3 </tspan><tspan
         sodipodi:role="line"
         x="454.15149"
         y="639.64447"
         id="tspan6049">covariates</tspan></text>
    <g
       transform="translate(-58.159029,-140.551)"
       id="g4244">
      <g
         transform="matrix(1.5592569,0,0,1.5592569,250.98237,-69.50094)"
         id="g4405">
        <g
           style="font-style:normal;font-variant:normal;font-weight:normal;font-stretch:normal;letter-spacing:normal;word-spacing:normal;text-anchor:start;fill:none;fill-opacity:1;fill-rule:evenodd;stroke:#000000;stroke-linecap:butt;stroke-linejoin:miter;stroke-miterlimit:10.43299961;stroke-dasharray:none;stroke-dashoffset:0;stroke-opacity:1"
           word-spacing="normal"
           letter-spacing="normal"
           font-size-adjust="none"
           font-stretch="normal"
           font-weight="normal"
           font-variant="normal"
           font-style="normal"
           stroke-miterlimit="10.433"
           xml:space="preserve"
           transform="matrix(0.38532267,0,0,-0.38532267,-67.431468,610.1262)"
           id="g4407"><path
             style="fill:#000000;stroke-width:0"
             inkscape:connector-curvature="0"
             id="path4409"
             d="M 479.63,425.98 488,437 c 0.55,0.68 0.6,0.73 2.35,0.89 1.19,0.14 1.48,0.14 2.89,0.14 l 1.44,0 0,2.34 c -2.1,-0.14 -4.54,-0.14 -6.68,-0.14 -1.93,0 -5.78,0 -7.57,0.14 l 0,-2.34 c 0.9,0 2.84,0 4.59,-0.55 -0.06,-0.09 -0.3,-0.39 -0.41,-0.55 l -6.57,-8.72 -7.13,9.82 4.14,0 0,2.34 c -2.05,-0.14 -6.78,-0.14 -9.01,-0.14 -2,0 -6.33,0 -8.08,0.14 l 0,-2.34 4.89,0 11.06,-15.28 -10.08,-13.21 c -0.44,-0.61 -0.54,-0.7 -2.14,-0.86 -0.98,-0.09 -2.03,-0.14 -3.03,-0.14 l -1.45,0 0,-2.34 c 2.09,0.16 4.54,0.16 6.68,0.16 1.94,0 5.79,0 7.57,-0.16 l 0,2.34 c -0.89,0 -2.83,0 -4.58,0.55 0.05,0.09 0.3,0.39 0.41,0.55 l 8.21,10.9 8.66,-12 -4.12,0 0,-2.34 c 2.04,0.16 6.76,0.16 9.01,0.16 1.99,0 6.33,0 8.06,-0.16 l 0,2.34 -4.87,0 z" /><path
             style="fill:#000000;stroke-width:0"
             inkscape:connector-curvature="0"
             id="path4411"
             d="m 510.51,420.92 0,0.04 0,0.04 0,0.05 0,0.04 0,0.03 0,0.04 0,0.04 0,0.03 0,0.04 -0.01,0.03 0,0.03 0,0.03 0,0.03 -0.01,0.03 0,0.03 0,0.02 -0.01,0.03 0,0.02 -0.01,0.03 0,0.02 -0.02,0.04 -0.01,0.04 -0.02,0.03 -0.02,0.03 -0.02,0.03 -0.02,0.03 -0.03,0.02 -0.03,0.02 -0.03,0.02 -0.04,0.01 -0.04,0.01 -0.05,0.02 -0.02,0 -0.02,0 -0.03,0.01 -0.03,0 -0.02,0.01 -0.03,0 -0.03,0 -0.03,0 -0.03,0 -0.04,0.01 -0.03,0 -0.04,0 -0.03,0 -0.04,0 -0.04,0 -0.04,0 -0.04,0 -0.05,0 -0.04,0 -0.05,0 c -2.23,-2.2 -5.39,-2.23 -6.82,-2.23 l 0,-1.25 c 0.84,0 3.14,0 5.04,0.97 l 0,-17.77 c 0,-1.16 0,-1.61 -3.48,-1.61 l -1.31,0 0,-1.25 c 0.62,0.03 4.9,0.14 6.2,0.14 1.08,0 5.47,-0.11 6.23,-0.14 l 0,1.25 -1.32,0 c -3.49,0 -3.49,0.45 -3.49,1.61 z" /></g>      </g>
      <g
         transform="matrix(1.5592569,0,0,1.5592569,102.35374,64.587949)"
         id="g4555">
        <g
           style="font-style:normal;font-variant:normal;font-weight:normal;font-stretch:normal;letter-spacing:normal;word-spacing:normal;text-anchor:start;fill:none;fill-opacity:1;fill-rule:evenodd;stroke:#000000;stroke-linecap:butt;stroke-linejoin:miter;stroke-miterlimit:10.43299961;stroke-dasharray:none;stroke-dashoffset:0;stroke-opacity:1"
           id="g4557"
           transform="matrix(0.38532267,0,0,-0.38532267,-67.431468,610.1262)"
           xml:space="preserve"
           stroke-miterlimit="10.433"
           font-style="normal"
           font-variant="normal"
           font-weight="normal"
           font-stretch="normal"
           font-size-adjust="none"
           letter-spacing="normal"
           word-spacing="normal"><path
             style="fill:#000000;stroke-width:0"
             inkscape:connector-curvature="0"
             d="M 479.63,425.98 488,437 c 0.55,0.68 0.6,0.73 2.35,0.89 1.19,0.14 1.48,0.14 2.89,0.14 l 1.44,0 0,2.34 c -2.1,-0.14 -4.54,-0.14 -6.68,-0.14 -1.93,0 -5.78,0 -7.57,0.14 l 0,-2.34 c 0.9,0 2.84,0 4.59,-0.55 -0.06,-0.09 -0.3,-0.39 -0.41,-0.55 l -6.57,-8.72 -7.13,9.82 4.14,0 0,2.34 c -2.05,-0.14 -6.78,-0.14 -9.01,-0.14 -2,0 -6.33,0 -8.08,0.14 l 0,-2.34 4.89,0 11.06,-15.28 -10.08,-13.21 c -0.44,-0.61 -0.54,-0.7 -2.14,-0.86 -0.98,-0.09 -2.03,-0.14 -3.03,-0.14 l -1.45,0 0,-2.34 c 2.09,0.16 4.54,0.16 6.68,0.16 1.94,0 5.79,0 7.57,-0.16 l 0,2.34 c -0.89,0 -2.83,0 -4.58,0.55 0.05,0.09 0.3,0.39 0.41,0.55 l 8.21,10.9 8.66,-12 -4.12,0 0,-2.34 c 2.04,0.16 6.76,0.16 9.01,0.16 1.99,0 6.33,0 8.06,-0.16 l 0,2.34 -4.87,0 z"
             id="path4559" /><path
             style="fill:#000000;stroke-width:0"
             inkscape:connector-curvature="0"
             d="m 516.43,405.11 -1.18,0 c -0.1,-0.77 -0.46,-2.83 -0.91,-3.18 -0.27,-0.2 -2.95,-0.2 -3.44,-0.2 l -6.42,0 c 3.66,3.23 4.88,4.2 6.97,5.84 2.58,2.07 4.98,4.22 4.98,7.54 0,4.21 -3.68,6.79 -8.15,6.79 -4.32,0 -7.25,-3.03 -7.25,-6.23 0,-1.78 1.5,-1.96 1.86,-1.96 0.82,0 1.84,0.6 1.84,1.85 0,0.62 -0.25,1.84 -2.06,1.84 1.08,2.47 3.45,3.24 5.09,3.24 3.49,0 5.3,-2.71 5.3,-5.53 0,-3.04 -2.16,-5.44 -3.28,-6.69 l -8.39,-8.3 c -0.36,-0.31 -0.36,-0.39 -0.36,-1.36 l 14.36,0 z"
             id="path4561" /></g>      </g>
      <g
         transform="matrix(1.5334597,0,0,1.5334597,378.18332,22.907389)"
         id="g4713">
        <g
           style="font-style:normal;font-variant:normal;font-weight:normal;font-stretch:normal;letter-spacing:normal;word-spacing:normal;text-anchor:start;fill:none;fill-opacity:1;fill-rule:evenodd;stroke:#000000;stroke-linecap:butt;stroke-linejoin:miter;stroke-miterlimit:10.43299961;stroke-dasharray:none;stroke-dashoffset:0;stroke-opacity:1"
           word-spacing="normal"
           letter-spacing="normal"
           font-size-adjust="none"
           font-stretch="normal"
           font-weight="normal"
           font-variant="normal"
           font-style="normal"
           stroke-miterlimit="10.433"
           xml:space="preserve"
           transform="matrix(0.38532267,0,0,-0.38532267,-67.431468,610.1262)"
           id="g4715"><path
             style="fill:#000000;stroke-width:0"
             inkscape:connector-curvature="0"
             id="path4717"
             d="M 479.63,425.98 488,437 c 0.55,0.68 0.6,0.73 2.35,0.89 1.19,0.14 1.48,0.14 2.89,0.14 l 1.44,0 0,2.34 c -2.1,-0.14 -4.54,-0.14 -6.68,-0.14 -1.93,0 -5.78,0 -7.57,0.14 l 0,-2.34 c 0.9,0 2.84,0 4.59,-0.55 -0.06,-0.09 -0.3,-0.39 -0.41,-0.55 l -6.57,-8.72 -7.13,9.82 4.14,0 0,2.34 c -2.05,-0.14 -6.78,-0.14 -9.01,-0.14 -2,0 -6.33,0 -8.08,0.14 l 0,-2.34 4.89,0 11.06,-15.28 -10.08,-13.21 c -0.44,-0.61 -0.54,-0.7 -2.14,-0.86 -0.98,-0.09 -2.03,-0.14 -3.03,-0.14 l -1.45,0 0,-2.34 c 2.09,0.16 4.54,0.16 6.68,0.16 1.94,0 5.79,0 7.57,-0.16 l 0,2.34 c -0.89,0 -2.83,0 -4.58,0.55 0.05,0.09 0.3,0.39 0.41,0.55 l 8.21,10.9 8.66,-12 -4.12,0 0,-2.34 c 2.04,0.16 6.76,0.16 9.01,0.16 1.99,0 6.33,0 8.06,-0.16 l 0,2.34 -4.87,0 z" /><path
             style="fill:#000000;stroke-width:0"
             inkscape:connector-curvature="0"
             id="path4719"
             d="m 508.36,410.4 0.25,0 0.25,-0.02 0.24,-0.03 0.24,-0.04 0.23,-0.05 0.23,-0.06 0.22,-0.07 0.21,-0.08 0.21,-0.1 0.2,-0.1 0.2,-0.12 0.19,-0.12 0.18,-0.14 0.17,-0.15 0.17,-0.16 0.16,-0.17 0.15,-0.18 0.14,-0.19 0.14,-0.2 0.13,-0.22 0.11,-0.22 0.11,-0.24 0.1,-0.24 0.09,-0.26 0.08,-0.27 0.07,-0.28 0.06,-0.29 0.05,-0.3 0.04,-0.31 0.02,-0.32 0.02,-0.33 0.01,-0.35 c 0,-4.33 -2.52,-5.61 -4.53,-5.61 -1.39,0 -4.47,0.38 -5.93,2.44 1.63,0.06 2.02,1.22 2.02,1.95 0,1.11 -0.84,1.91 -1.92,1.91 -0.97,0 -1.96,-0.59 -1.96,-2.02 0,-3.28 3.63,-5.4 7.85,-5.4 4.84,0 8.19,3.25 8.19,6.73 0,2.72 -2.22,5.44 -6.07,6.24 3.66,1.33 4.99,3.93 4.99,6.06 0,2.75 -3.17,4.81 -7.03,4.81 -3.88,0 -6.83,-1.89 -6.83,-4.67 0,-1.19 0.76,-1.84 1.81,-1.84 1.08,0 1.77,0.79 1.77,1.76 0,1.02 -0.69,1.75 -1.77,1.81 1.22,1.55 3.61,1.93 4.91,1.93 1.56,0 3.76,-0.77 3.76,-3.8 0,-1.47 -0.48,-3.06 -1.39,-4.14 -1.15,-1.33 -2.12,-1.41 -3.87,-1.5 -0.88,-0.08 -0.94,-0.08 -1.11,-0.11 -0.08,0 -0.36,-0.06 -0.36,-0.45 0,-0.49 0.31,-0.49 0.9,-0.49 z" /></g>      </g>
      <text
         sodipodi:linespacing="125%"
         id="text5373"
         y="609.68213"
         x="-175.15347"
         style="font-style:normal;font-variant:normal;font-weight:normal;font-stretch:normal;font-size:25.00000191px;line-height:125%;font-family:Helvetica;-inkscape-font-specification:'Helvetica, Normal';text-align:start;letter-spacing:0px;word-spacing:0px;writing-mode:lr-tb;text-anchor:start;fill:#000000;fill-opacity:1;stroke:none;stroke-width:1px;stroke-linecap:butt;stroke-linejoin:miter;stroke-opacity:1"
         xml:space="preserve"><tspan
           y="609.68213"
           x="-175.15347"
           id="tspan5375"
           sodipodi:role="line">mean response tensor</tspan></text>
      <text
         xml:space="preserve"
         style="font-style:normal;font-variant:normal;font-weight:normal;font-stretch:normal;font-size:25.00000191px;line-height:125%;font-family:Helvetica;-inkscape-font-specification:'Helvetica, Normal';text-align:start;letter-spacing:0px;word-spacing:0px;writing-mode:lr-tb;text-anchor:start;fill:#000000;fill-opacity:1;stroke:none;stroke-width:1px;stroke-linecap:butt;stroke-linejoin:miter;stroke-opacity:1"
         x="10.569657"
         y="737.24628"
         id="text5591"
         sodipodi:linespacing="125%"><tspan
           sodipodi:role="line"
           id="tspan5593"
           x="10.569657"
           y="737.24628">tailored to data type</tspan></text>
      <text
         xml:space="preserve"
         style="font-style:normal;font-variant:normal;font-weight:normal;font-stretch:normal;font-size:18.75000191px;line-height:125%;font-family:Helvetica;-inkscape-font-specification:'Helvetica, Normal';text-align:start;letter-spacing:0px;word-spacing:0px;writing-mode:lr-tb;text-anchor:start;fill:#000000;fill-opacity:1;stroke:none;stroke-width:1px;stroke-linecap:butt;stroke-linejoin:miter;stroke-opacity:1"
         x="368.44055"
         y="756.79541"
         id="text5877"
         sodipodi:linespacing="125%"
         inkscape:transform-center-x="1.6155286"
         inkscape:transform-center-y="-138.93545"><tspan
           sodipodi:role="line"
           x="368.44055"
           y="756.79541"
           id="tspan5883">low-rank </tspan><tspan
           sodipodi:role="line"
           x="368.44055"
           y="780.23291"
           id="tspan5881">coefficient</tspan></text>
    </g>
    <g
       transform="matrix(1.4314545,0,0,1.4314545,192.59711,-69.034669)"
       id="g5083">
      <g
         style="font-style:normal;font-variant:normal;font-weight:normal;font-stretch:normal;letter-spacing:normal;word-spacing:normal;text-anchor:start;fill:none;fill-opacity:1;fill-rule:evenodd;stroke:#000000;stroke-linecap:butt;stroke-linejoin:miter;stroke-miterlimit:10.43299961;stroke-dasharray:none;stroke-dashoffset:0;stroke-opacity:1"
         word-spacing="normal"
         letter-spacing="normal"
         font-size-adjust="none"
         font-stretch="normal"
         font-weight="normal"
         font-variant="normal"
         font-style="normal"
         stroke-miterlimit="10.433"
         xml:space="preserve"
         transform="matrix(0.38532267,0,0,-0.38532267,-67.431468,610.1262)"
         id="g5085"><path
           style="fill:#000000;stroke-width:0"
           inkscape:connector-curvature="0"
           id="path5087"
           d="m 469.47,440.03 0.01,0.02 0,0.03 0.01,0.02 0,0.02 0,0.03 0.01,0.02 0,0.02 0,0.02 0.01,0.04 0.01,0.04 0,0.04 0.01,0.03 0,0.03 0.01,0.03 0,0.03 0,0.03 0.01,0.02 0,0.03 0,0.02 0,0.02 0.01,0.02 0,0.02 0,0.02 0,0.02 0,0.01 0,0.02 0,0.02 0,0.01 0.01,0.03 0,0.03 0,0.03 0,0.02 c 0,0.35 -0.1,0.5 -0.55,0.5 -0.55,0 -2.05,-0.75 -3.03,-1.25 -2.3,-1.14 -4.19,-2.09 -4.19,-2.98 0,-0.3 0.34,-0.3 0.55,-0.3 0.59,0 1.89,0.69 2.84,1.14 -0.61,-4.87 -1.8,-11.25 -2.7,-15.54 -1.85,-8.47 -2.78,-11.5 -5.22,-16.35 -0.25,-0.43 -0.25,-0.54 -0.25,-0.59 0,-0.34 0.39,-0.34 0.5,-0.34 0.8,0 2.87,0.89 3.67,2.29 0.66,1.14 2.55,4.78 4.05,10.56 1.09,4.29 2.98,10.8 6.51,15.94 2.3,3.24 4.39,4.74 7.54,4.74 2.68,0 5.12,-1.75 5.12,-4.39 0,-4.38 -4.73,-5.97 -9.91,-7.72 -0.59,-0.21 -4.03,-1.39 -4.03,-2.64 0,-0.3 0.35,-0.35 0.49,-0.35 0.2,0 1.36,0.19 2.4,0.19 5.03,0 9.11,-2.98 9.11,-7.72 0,-6.17 -5.28,-8.17 -9.81,-8.17 -3.84,0 -5.69,2.09 -6.33,2.8 -0.2,0.25 -0.25,0.34 -0.65,0.34 -1.1,0 -3.63,-1.55 -3.63,-2.44 0,-0.15 1.94,-3.43 7.31,-3.43 7.03,0 17.35,4.98 17.35,13 0,4.18 -2.8,7.32 -7.88,8.26 3.99,1.7 9.81,5.28 9.81,9.97 0,2.89 -2.39,5.03 -6.07,5.03 -1.69,0 -8.07,-0.45 -14.1,-7.92 z" /></g>    </g>
    <g
       transform="matrix(1.3025634,0,0,1.3025634,-355.89164,2.9338289)"
       id="g5267">
      <g
         style="font-style:normal;font-variant:normal;font-weight:normal;font-stretch:normal;letter-spacing:normal;word-spacing:normal;text-anchor:start;fill:none;fill-opacity:1;fill-rule:evenodd;stroke:#000000;stroke-linecap:butt;stroke-linejoin:miter;stroke-miterlimit:10.43299961;stroke-dasharray:none;stroke-dashoffset:0;stroke-opacity:1"
         id="g5269"
         transform="matrix(0.38532267,0,0,-0.38532267,-67.431468,610.1262)"
         xml:space="preserve"
         stroke-miterlimit="10.433"
         font-style="normal"
         font-variant="normal"
         font-weight="normal"
         font-stretch="normal"
         font-size-adjust="none"
         letter-spacing="normal"
         word-spacing="normal"><path
           style="fill:#000000;stroke-width:0"
           inkscape:connector-curvature="0"
           d="m 468.43,422.93 0.12,0 0.12,0 0.14,0 0.13,0 0.15,0 0.15,0 0.15,-0.01 0.16,0 0.16,-0.01 0.17,-0.01 0.34,-0.02 0.35,-0.03 0.36,-0.05 0.37,-0.05 0.37,-0.07 0.18,-0.04 0.19,-0.05 0.18,-0.04 0.18,-0.06 0.19,-0.06 0.18,-0.06 0.18,-0.06 0.17,-0.08 0.18,-0.08 0.17,-0.08 0.17,-0.09 0.16,-0.09 -0.2,2.04 0,0.05 c 0.79,0.36 1.9,1.09 2.79,2.14 l 0,-4.17 c -1.2,1.34 -2.73,1.98 -2.79,1.98 l 0.2,-2.04 c 2.39,-1.53 2.59,-4.24 2.59,-4.53 0.05,-0.69 0.05,-1.35 0.9,-1.35 0.85,0 0.85,0.7 0.85,1.6 l 0,13.5 c 0,0.79 0,1.59 -0.85,1.59 -0.85,0 -0.9,-0.75 -0.9,-1.14 -0.29,-6.42 -5.37,-6.78 -7.96,-6.83 l 0,10.52 c 0,3.34 0.93,3.34 2.14,3.34 l 2.39,0 c 6.72,0 10.06,-3.44 10.36,-6.88 0.04,-0.4 0.11,-1.15 0.9,-1.15 0.85,0 0.85,0.8 0.85,1.64 l 0,6.48 c 0,1.55 -0.11,1.64 -1.64,1.64 l -0.11,-1.73 0,-2.39 c -0.85,0.94 -1.8,1.73 -2.85,2.39 l 2.85,0 0.11,1.73 -25.52,0 c -0.89,0 -1.69,0 -1.69,-0.89 0,-0.84 0.94,-0.84 1.35,-0.84 2.82,0 3.03,-0.41 3.03,-2.84 l 0,-24.97 1.75,-0.1 0,25.16 c 0,0.59 0,1.84 -0.41,2.75 l 5.28,0 c -0.54,-1.16 -0.54,-2.8 -0.54,-3.25 l 0,-24.16 c 0,-1.79 0.36,-2.79 0.54,-3.23 l -5.28,0 c 0.41,0.89 0.41,2.14 0.41,2.73 l -1.75,0.1 c 0,-2.35 -0.14,-2.83 -2.78,-2.83 -0.75,0 -1.6,0 -1.6,-0.86 0,-0.89 0.8,-0.89 1.69,-0.89 l 26.41,0 0.04,1.75 -3.48,0 0,0.05 c 1.59,0.79 2.94,1.84 3.94,2.73 -0.05,-0.2 -0.41,-2.39 -0.46,-2.78 l -0.04,-1.75 c 0.95,0 1.43,0 1.59,0.7 0.05,0.05 1.44,8.36 1.44,8.61 0,0.55 -0.44,0.91 -0.85,0.91 -0.68,0 -0.89,-0.66 -0.89,-0.71 -0.29,-1.29 -0.79,-3.39 -4.43,-5.53 -2.6,-1.54 -5.13,-2.23 -7.88,-2.23 l -2.73,0 c -1.21,0 -2.14,0 -2.14,3.33 z"
           id="path5271" /><path
           style="fill:#000000;stroke-width:0"
           inkscape:connector-curvature="0"
           d="m 505.24,394.25 0,0.02 0,0.03 0,0.01 0,0.02 -0.01,0.01 0,0.02 -0.01,0.01 0,0.02 -0.01,0.02 -0.01,0.02 -0.01,0.02 -0.02,0.03 -0.01,0.02 -0.02,0.03 -0.02,0.03 -0.03,0.03 -0.02,0.03 -0.03,0.04 -0.02,0.02 -0.02,0.02 -0.01,0.02 -0.02,0.02 -0.02,0.02 -0.02,0.03 -0.02,0.02 -0.02,0.02 -0.03,0.03 -0.02,0.02 -0.03,0.03 -0.02,0.03 -0.03,0.03 -0.02,0.03 -0.03,0.03 -0.03,0.03 -0.03,0.03 -0.04,0.03 -0.03,0.04 -0.03,0.03 -0.04,0.04 -0.04,0.03 -0.03,0.04 -0.04,0.04 c -6.22,6.28 -7.81,15.69 -7.81,23.31 0,8.67 1.89,17.35 8.01,23.56 0.64,0.61 0.64,0.71 0.64,0.86 0,0.35 -0.19,0.49 -0.48,0.49 -0.5,0 -4.99,-3.38 -7.92,-9.7 -2.55,-5.49 -3.14,-11.02 -3.14,-15.21 0,-3.89 0.54,-9.9 3.28,-15.54 2.98,-6.13 7.28,-9.36 7.78,-9.36 0.29,0 0.48,0.14 0.48,0.5 z"
           id="path5273" /><path
           style="fill:#000000;stroke-width:0"
           inkscape:connector-curvature="0"
           d="m 528.4,411.03 0.02,0.18 0.01,0.18 0.03,0.38 0.02,0.39 0.02,0.4 0.02,0.41 0.02,0.41 0.01,0.42 0.01,0.41 0.01,0.4 0.01,0.4 0.01,0.38 0,0.18 0.01,0.19 0,0.17 0,0.18 0,0.16 0,0.16 0,0.16 0,0.15 0,0.14 0,0.13 c 0,5.24 -0.25,23.22 -10.67,23.22 -3.43,0 -6.47,-3.05 -6.47,-3.8 0,-0.39 0.4,-0.39 0.5,-0.39 0.3,0 1.85,0.25 2.94,1.69 4.38,-0.05 7.22,-3.28 8.72,-9.56 0.94,-3.99 1.3,-8.42 1.3,-12.96 0,-2.98 -0.2,-6.42 -0.25,-7.07 -0.05,-0.39 -0.05,-0.5 -0.16,-0.55 -0.09,-0.09 -5.08,-4.28 -7.51,-4.28 -0.41,0 -4.44,0 -5.39,4.14 -0.1,0.34 -0.15,0.64 -0.44,0.64 -0.61,0 -1.55,-1.69 -1.55,-2.94 0,-2.04 1.89,-5.67 6.13,-5.67 3.78,0 12,7.31 16.34,12.34 9.97,11.47 11.7,20.04 11.7,22.63 0,4.23 -2.84,5.78 -4.73,5.78 -1.44,0 -1.89,-2.5 -1.89,-3 0,-0.73 0.2,-0.8 0.95,-0.89 2.94,-0.34 3.69,-2.69 3.69,-4.14 0,-1.53 -2.34,-10.41 -13.41,-21.17 z"
           id="path5275" /><path
           style="fill:#000000;stroke-width:0"
           inkscape:connector-curvature="0"
           d="m 559.78,418.65 0,0.37 0,0.39 -0.01,0.39 -0.01,0.41 -0.04,0.84 -0.06,0.88 -0.09,0.92 -0.1,0.95 -0.14,0.97 -0.16,1.01 -0.2,1.02 -0.23,1.03 -0.26,1.05 -0.31,1.06 -0.35,1.07 -0.39,1.07 -0.21,0.53 -0.23,0.53 -0.24,0.53 -0.25,0.53 c -2.98,6.12 -7.26,9.36 -7.76,9.36 -0.3,0 -0.5,-0.19 -0.5,-0.49 0,-0.15 0,-0.25 0.94,-1.15 4.89,-4.92 7.73,-12.85 7.73,-23.27 0,-8.51 -1.84,-17.28 -8.03,-23.56 -0.64,-0.59 -0.64,-0.7 -0.64,-0.84 0,-0.3 0.2,-0.5 0.5,-0.5 0.5,0 4.97,3.39 7.92,9.71 2.53,5.47 3.12,11 3.12,15.19 z"
           id="path5277" /></g>    </g>
    <g
       id="g5478"
       transform="matrix(1.3025634,0,0,1.3025634,-7.1636172,-65.997894)">
      <g
         word-spacing="normal"
         letter-spacing="normal"
         font-size-adjust="none"
         font-stretch="normal"
         font-weight="normal"
         font-variant="normal"
         font-style="normal"
         stroke-miterlimit="10.433"
         xml:space="preserve"
         transform="matrix(0.38532267,0,0,-0.38532267,-67.431468,610.1262)"
         id="g5480"
         style="font-style:normal;font-variant:normal;font-weight:normal;font-stretch:normal;letter-spacing:normal;word-spacing:normal;text-anchor:start;fill:none;fill-opacity:1;fill-rule:evenodd;stroke:#000000;stroke-linecap:butt;stroke-linejoin:miter;stroke-miterlimit:10.43299961;stroke-dasharray:none;stroke-dashoffset:0;stroke-opacity:1"><path
           id="path5482"
           d="m 473.8,426.12 4.28,0 c 1,0 1.5,0 1.5,1 0,0.55 -0.5,0.55 -1.34,0.55 l -4.14,0 1.04,5.69 c 0.21,1.04 0.91,4.57 1.21,5.17 0.45,0.95 1.29,1.7 2.34,1.7 0.19,0 1.49,0 2.44,-0.91 -2.19,-0.18 -2.69,-1.93 -2.69,-2.68 0,-1.14 0.89,-1.74 1.85,-1.74 1.29,0 2.73,1.1 2.73,2.99 0,2.29 -2.3,3.43 -4.33,3.43 -1.7,0 -4.84,-0.89 -6.33,-5.82 -0.29,-1.05 -0.45,-1.55 -1.64,-7.83 l -3.43,0 c -0.96,0 -1.5,0 -1.5,-0.94 0,-0.61 0.45,-0.61 1.39,-0.61 l 3.29,0 -3.75,-19.67 c -0.89,-4.83 -1.73,-9.38 -4.33,-9.38 -0.2,0 -1.43,0 -2.39,0.91 2.3,0.14 2.74,1.94 2.74,2.69 0,1.14 -0.89,1.75 -1.85,1.75 -1.29,0 -2.73,-1.1 -2.73,-3 0,-2.24 2.19,-3.44 4.23,-3.44 2.74,0 4.74,2.94 5.63,4.84 1.59,3.14 2.75,9.16 2.8,9.52 z"
           inkscape:connector-curvature="0"
           style="fill:#000000;stroke-width:0" /><path
           id="path5484"
           d="m 501.77,394.25 0,0.02 -0.01,0.03 0,0.01 0,0.02 0,0.01 -0.01,0.02 0,0.01 -0.01,0.02 -0.01,0.02 -0.01,0.02 -0.01,0.02 -0.01,0.03 -0.02,0.02 -0.02,0.03 -0.02,0.03 -0.02,0.03 -0.03,0.03 -0.03,0.04 -0.02,0.02 -0.01,0.02 -0.02,0.02 -0.02,0.02 -0.02,0.02 -0.02,0.03 -0.02,0.02 -0.02,0.02 -0.02,0.03 -0.03,0.02 -0.02,0.03 -0.03,0.03 -0.02,0.03 -0.03,0.03 -0.03,0.03 -0.03,0.03 -0.03,0.03 -0.03,0.03 -0.04,0.04 -0.03,0.03 -0.03,0.04 -0.04,0.03 -0.04,0.04 -0.04,0.04 c -6.22,6.28 -7.81,15.69 -7.81,23.31 0,8.67 1.89,17.35 8.01,23.56 0.65,0.61 0.65,0.71 0.65,0.86 0,0.35 -0.19,0.49 -0.49,0.49 -0.5,0 -4.98,-3.38 -7.92,-9.7 -2.55,-5.49 -3.14,-11.02 -3.14,-15.21 0,-3.89 0.55,-9.9 3.28,-15.54 2.98,-6.13 7.28,-9.36 7.78,-9.36 0.3,0 0.49,0.14 0.49,0.5 z"
           inkscape:connector-curvature="0"
           style="fill:#000000;stroke-width:0" /><path
           id="path5486"
           d="m 514.16,418.65 0,0.14 -0.01,0.13 -0.02,0.13 -0.02,0.13 -0.03,0.13 -0.04,0.13 -0.04,0.12 -0.05,0.12 -0.05,0.11 -0.06,0.12 -0.06,0.11 -0.07,0.11 -0.08,0.1 -0.07,0.1 -0.09,0.1 -0.09,0.09 -0.09,0.08 -0.09,0.09 -0.1,0.08 -0.11,0.07 -0.1,0.07 -0.11,0.06 -0.12,0.06 -0.11,0.05 -0.12,0.05 -0.13,0.04 -0.12,0.04 -0.13,0.03 -0.13,0.02 -0.13,0.02 -0.13,0.01 -0.14,0 c -1.44,0 -2.64,-1.18 -2.64,-2.64 0,-1.44 1.2,-2.64 2.64,-2.64 1.45,0 2.64,1.2 2.64,2.64 z"
           inkscape:connector-curvature="0"
           style="fill:#000000;stroke-width:0" /><path
           id="path5488"
           d="m 532.78,418.65 0,0.37 0,0.39 -0.01,0.39 -0.01,0.41 -0.04,0.84 -0.06,0.88 -0.09,0.92 -0.1,0.95 -0.14,0.97 -0.16,1.01 -0.2,1.02 -0.23,1.03 -0.26,1.05 -0.31,1.06 -0.35,1.07 -0.39,1.07 -0.21,0.53 -0.23,0.53 -0.24,0.53 -0.25,0.53 c -2.98,6.12 -7.26,9.36 -7.76,9.36 -0.3,0 -0.5,-0.19 -0.5,-0.49 0,-0.15 0,-0.25 0.94,-1.15 4.89,-4.92 7.73,-12.85 7.73,-23.27 0,-8.51 -1.84,-17.28 -8.03,-23.56 -0.64,-0.59 -0.64,-0.7 -0.64,-0.84 0,-0.3 0.2,-0.5 0.5,-0.5 0.5,0 4.97,3.39 7.92,9.71 2.53,5.47 3.12,11 3.12,15.19 z"
           inkscape:connector-curvature="0"
           style="fill:#000000;stroke-width:0" /></g>    </g>
    <text
       xml:space="preserve"
       style="font-style:normal;font-variant:normal;font-weight:normal;font-stretch:normal;font-size:18.75px;line-height:125%;font-family:Helvetica;-inkscape-font-specification:'Helvetica, Normal';text-align:start;letter-spacing:0px;word-spacing:0px;writing-mode:lr-tb;text-anchor:start;fill:#000000;fill-opacity:1;stroke:none;stroke-width:1px;stroke-linecap:butt;stroke-linejoin:miter;stroke-opacity:1"
       x="-206.07393"
       y="657.82245"
       id="text5891"
       sodipodi:linespacing="125%"><tspan
         sodipodi:role="line"
         id="tspan5893"
         x="-206.07393"
         y="657.82245">time</tspan></text>
    <text
       xml:space="preserve"
       style="font-style:normal;font-variant:normal;font-weight:normal;font-stretch:normal;font-size:18.75px;line-height:125%;font-family:Helvetica;-inkscape-font-specification:'Helvetica, Normal';text-align:start;letter-spacing:0px;word-spacing:0px;writing-mode:lr-tb;text-anchor:start;fill:#000000;fill-opacity:1;stroke:none;stroke-width:1px;stroke-linecap:butt;stroke-linejoin:miter;stroke-opacity:1"
       x="-487.8584"
       y="298.40564"
       id="text5895"
       sodipodi:linespacing="125%"
       transform="matrix(0.81915204,-0.57357644,0.57357644,0.81915204,0,0)"><tspan
         sodipodi:role="line"
         id="tspan5897"
         x="-487.8584"
         y="298.40564">level</tspan></text>
    <text
       xml:space="preserve"
       style="font-style:normal;font-variant:normal;font-weight:normal;font-stretch:normal;font-size:18.75px;line-height:125%;font-family:Helvetica;-inkscape-font-specification:'Helvetica, Normal';text-align:start;letter-spacing:0px;word-spacing:0px;writing-mode:lr-tb;text-anchor:start;fill:#000000;fill-opacity:1;stroke:none;stroke-width:1px;stroke-linecap:butt;stroke-linejoin:miter;stroke-opacity:1"
       x="-601.33508"
       y="-249.00926"
       id="text5899"
       sodipodi:linespacing="125%"
       transform="matrix(0,-1,1,0,0,0)"><tspan
         sodipodi:role="line"
         id="tspan5901"
         x="-601.33508"
         y="-249.00926">lake</tspan></text>
  </g>
</svg>
